REM DIRINDEX 1\3,1\2\4,1\2\5,1\2\6
REM DIRNAME folder01,folder02,folder03,folder04,folder05,folder06
TITLE ""
FILE "006.mp3" MP3
  TRACK 01 AUDIO
    TITLE "4:cjc137_0213"
    INDEX 01 00:00:00
  TRACK 02 AUDIO
    TITLE "0:"
    INDEX 01 00:01:13
  TRACK 03 AUDIO
    TITLE "6:cjc137_0214"
    INDEX 01 00:01:24
  TRACK 04 AUDIO
    TITLE "0:"
    INDEX 01 00:02:40
  TRACK 05 AUDIO
    TITLE "5:cjc137_0215"
    INDEX 01 00:02:49
  TRACK 06 AUDIO
    TITLE "0:"
    INDEX 01 00:03:63
  TRACK 07 AUDIO
    TITLE "4:cjc137_0216"
    INDEX 01 00:04:70
  TRACK 08 AUDIO
    TITLE "0:"
    INDEX 01 00:06:04
  TRACK 09 AUDIO
    TITLE "6:cjc137_0217"
    INDEX 01 00:06:16
  TRACK 10 AUDIO
    TITLE "0:"
    INDEX 01 00:07:07
  TRACK 11 AUDIO
    TITLE "5:cjc137_0218"
    INDEX 01 00:07:19
  TRACK 12 AUDIO
    TITLE "0:"
    INDEX 01 00:08:28
  TRACK 13 AUDIO
    TITLE "4:cjc137_0219"
    INDEX 01 00:09:36
  TRACK 14 AUDIO
    TITLE "0:"
    INDEX 01 00:10:49
  TRACK 15 AUDIO
    TITLE "6:cjc137_0220"
    INDEX 01 00:10:61
  TRACK 16 AUDIO
    TITLE "0:"
    INDEX 01 00:11:74
  TRACK 17 AUDIO
    TITLE "5:cjc137_0221"
    INDEX 01 00:12:11
  TRACK 18 AUDIO
    TITLE "0:"
    INDEX 01 00:13:22
  TRACK 19 AUDIO
    TITLE "4:cjc137_0222"
    INDEX 01 00:14:33
  TRACK 20 AUDIO
    TITLE "0:"
    INDEX 01 00:15:34
  TRACK 21 AUDIO
    TITLE "6:cjc137_0223"
    INDEX 01 00:15:48
  TRACK 22 AUDIO
    TITLE "0:"
    INDEX 01 00:16:40
  TRACK 23 AUDIO
    TITLE "5:cjc137_0224"
    INDEX 01 00:16:53
  TRACK 24 AUDIO
    TITLE "0:"
    INDEX 01 00:17:55
  TRACK 25 AUDIO
    TITLE "4:cjc137_0225"
    INDEX 01 00:18:66
  TRACK 26 AUDIO
    TITLE "0:"
    INDEX 01 00:19:73
  TRACK 27 AUDIO
    TITLE "6:cjc137_0226"
    INDEX 01 00:20:12
  TRACK 28 AUDIO
    TITLE "0:"
    INDEX 01 00:20:73
  TRACK 29 AUDIO
    TITLE "5:cjc137_0227"
    INDEX 01 00:21:29
  TRACK 30 AUDIO
    TITLE "0:"
    INDEX 01 00:22:40
  TRACK 31 AUDIO
    TITLE "4:cjc137_0228"
    INDEX 01 00:23:48
  TRACK 32 AUDIO
    TITLE "0:"
    INDEX 01 00:24:55
  TRACK 33 AUDIO
    TITLE "6:cjc137_0229"
    INDEX 01 00:24:69
  TRACK 34 AUDIO
    TITLE "0:"
    INDEX 01 00:25:58
  TRACK 35 AUDIO
    TITLE "5:cjc137_0230"
    INDEX 01 00:25:70
  TRACK 36 AUDIO
    TITLE "0:"
    INDEX 01 00:27:02
  TRACK 37 AUDIO
    TITLE "4:cjc137_0231"
    INDEX 01 00:28:12
  TRACK 38 AUDIO
    TITLE "0:"
    INDEX 01 00:29:07
  TRACK 39 AUDIO
    TITLE "6:cjc137_0232"
    INDEX 01 00:29:29
  TRACK 40 AUDIO
    TITLE "0:"
    INDEX 01 00:30:10
  TRACK 41 AUDIO
    TITLE "5:cjc137_0233"
    INDEX 01 00:30:26
  TRACK 42 AUDIO
    TITLE "0:"
    INDEX 01 00:31:22
  TRACK 43 AUDIO
    TITLE "4:cjc137_0234"
    INDEX 01 00:32:37
  TRACK 44 AUDIO
    TITLE "0:"
    INDEX 01 00:33:34
  TRACK 45 AUDIO
    TITLE "6:cjc137_0235"
    INDEX 01 00:33:54
  TRACK 46 AUDIO
    TITLE "0:"
    INDEX 01 00:34:59
  TRACK 47 AUDIO
    TITLE "5:cjc137_0236"
    INDEX 01 00:35:02
  TRACK 48 AUDIO
    TITLE "0:"
    INDEX 01 00:36:01
  TRACK 49 AUDIO
    TITLE "4:cjc137_0237"
    INDEX 01 00:37:16
  TRACK 50 AUDIO
    TITLE "0:"
    INDEX 01 00:38:22
  TRACK 51 AUDIO
    TITLE "6:cjc137_0238"
    INDEX 01 00:38:33
  TRACK 52 AUDIO
    TITLE "0:"
    INDEX 01 00:39:25
  TRACK 53 AUDIO
    TITLE "5:cjc137_0239"
    INDEX 01 00:39:43
  TRACK 54 AUDIO
    TITLE "0:"
    INDEX 01 00:40:46
  TRACK 55 AUDIO
    TITLE "4:cjc137_0240"
    INDEX 01 00:41:57
  TRACK 56 AUDIO
    TITLE "0:"
    INDEX 01 00:42:61
  TRACK 57 AUDIO
    TITLE "6:cjc137_0241"
    INDEX 01 00:43:01
  TRACK 58 AUDIO
    TITLE "0:"
    INDEX 01 00:44:16
  TRACK 59 AUDIO
    TITLE "5:cjc137_0242"
    INDEX 01 00:44:30
  TRACK 60 AUDIO
    TITLE "0:"
    INDEX 01 00:45:37
  TRACK 61 AUDIO
    TITLE "4:cjc137_0243"
    INDEX 01 00:46:47
  TRACK 62 AUDIO
    TITLE "0:"
    INDEX 01 00:47:52
  TRACK 63 AUDIO
    TITLE "6:cjc137_0244"
    INDEX 01 00:47:64
  TRACK 64 AUDIO
    TITLE "0:"
    INDEX 01 00:49:04
  TRACK 65 AUDIO
    TITLE "5:cjc137_0245"
    INDEX 01 00:49:16
  TRACK 66 AUDIO
    TITLE "0:"
    INDEX 01 00:50:19
  TRACK 67 AUDIO
    TITLE "4:cjc137_0246"
    INDEX 01 00:51:28
  TRACK 68 AUDIO
    TITLE "0:"
    INDEX 01 00:52:32
  TRACK 69 AUDIO
    TITLE "6:cjc137_0247"
    INDEX 01 00:52:43
  TRACK 70 AUDIO
    TITLE "0:"
    INDEX 01 00:53:58
  TRACK 71 AUDIO
    TITLE "5:cjc137_0248"
    INDEX 01 00:53:70
  TRACK 72 AUDIO
    TITLE "0:"
    INDEX 01 00:54:74
  TRACK 73 AUDIO
    TITLE "4:cjc137_0249"
    INDEX 01 00:56:06
  TRACK 74 AUDIO
    TITLE "0:"
    INDEX 01 00:57:11
  TRACK 75 AUDIO
    TITLE "6:cjc137_0250"
    INDEX 01 00:57:23
  TRACK 76 AUDIO
    TITLE "0:"
    INDEX 01 00:58:28
  TRACK 77 AUDIO
    TITLE "5:cjc137_0251"
    INDEX 01 00:58:40
  TRACK 78 AUDIO
    TITLE "0:"
    INDEX 01 00:59:43
  TRACK 79 AUDIO
    TITLE "4:cjc137_0252"
    INDEX 01 01:00:55
  TRACK 80 AUDIO
    TITLE "0:"
    INDEX 01 01:01:52
  TRACK 81 AUDIO
    TITLE "6:cjc137_0253"
    INDEX 01 01:01:68
  TRACK 82 AUDIO
    TITLE "0:"
    INDEX 01 01:02:52
  TRACK 83 AUDIO
    TITLE "5:cjc137_0254"
    INDEX 01 01:02:65
  TRACK 84 AUDIO
    TITLE "0:"
    INDEX 01 01:03:65
